<svg width="90" height="18" viewBox="0 0 90 18" fill="none" xmlns="http://www.w3.org/2000/svg">
<path d="M0.195312 1.73633H3.57422L7.71484 11.5898L8.67188 13.9727L9.42383 11.5898L10.9473 7.99609L8.20312 1.73633H11.3867L12.5098 4.71484L13.5547 1.73633H16.7383L13.9941 7.99609L15.5469 11.668L16.4844 13.9727L17.207 11.6289L21.3672 1.73633H24.7461L18.0078 17H14.9414L13.584 13.9727L12.4805 11.0332L11.377 13.9727L10 17H6.93359L0.195312 1.73633ZM26.0547 11.2383C26.0547 10.4115 26.2207 9.63672 26.5527 8.91406C26.8913 8.19141 27.3698 7.5599 27.9883 7.01953C28.6133 6.47917 29.3652 6.05273 30.2441 5.74023C31.1296 5.42773 32.1224 5.27148 33.2227 5.27148C34.3229 5.27148 35.3125 5.42773 36.1914 5.74023C37.0768 6.05273 37.8288 6.47917 38.4473 7.01953C39.0723 7.5599 39.5508 8.19141 39.8828 8.91406C40.2214 9.63672 40.3906 10.4115 40.3906 11.2383C40.3906 12.0651 40.2214 12.8398 39.8828 13.5625C39.5508 14.2852 39.0723 14.9167 38.4473 15.457C37.8288 15.9974 37.0768 16.4238 36.1914 16.7363C35.3125 17.0488 34.3229 17.2051 33.2227 17.2051C32.1224 17.2051 31.1296 17.0488 30.2441 16.7363C29.3652 16.4238 28.6133 15.9974 27.9883 15.457C27.3698 14.9167 26.8913 14.2852 26.5527 13.5625C26.2207 12.8398 26.0547 12.0651 26.0547 11.2383ZM29.0918 11.2383C29.0918 11.7005 29.1829 12.14 29.3652 12.5566C29.554 12.9668 29.8242 13.3314 30.1758 13.6504C30.5339 13.9629 30.9668 14.2135 31.4746 14.4023C31.9889 14.5846 32.5716 14.6758 33.2227 14.6758C33.8737 14.6758 34.4531 14.5846 34.9609 14.4023C35.4753 14.2135 35.9082 13.9629 36.2598 13.6504C36.6178 13.3314 36.888 12.9668 37.0703 12.5566C37.2591 12.14 37.3535 11.7005 37.3535 11.2383C37.3535 10.776 37.2591 10.3366 37.0703 9.91992C36.888 9.50326 36.6178 9.13867 36.2598 8.82617C35.9082 8.50716 35.4753 8.25651 34.9609 8.07422C34.4531 7.88542 33.8737 7.79102 33.2227 7.79102C32.5716 7.79102 31.9889 7.88542 31.4746 8.07422C30.9668 8.25651 30.5339 8.50716 30.1758 8.82617C29.8242 9.13867 29.554 9.50326 29.3652 9.91992C29.1829 10.3366 29.0918 10.776 29.0918 11.2383ZM43.3105 5.47656H46.2012V7.13672C46.8392 6.66146 47.513 6.2513 48.2227 5.90625C48.9323 5.5612 49.6387 5.29753 50.3418 5.11523L51.1914 7.76172C50.0781 7.8724 49.0983 8.12305 48.252 8.51367C47.4121 8.89779 46.7285 9.44141 46.2012 10.1445V17H43.3105V5.47656ZM53.3594 0.798828H56.25V10.3691L61.6406 5.47656H66.0645L60.0391 10.8672L66.4453 17H62.1094L57.8223 12.8496L56.25 14.2559V17H53.3594V0.798828ZM68.3496 5.4668H71.2305V11.0918C71.2305 11.6257 71.2891 12.1139 71.4062 12.5566C71.5234 12.9928 71.722 13.3672 72.002 13.6797C72.2884 13.9922 72.666 14.2363 73.1348 14.4121C73.61 14.5814 74.1992 14.666 74.9023 14.666C75.2344 14.666 75.5697 14.6302 75.9082 14.5586C76.2533 14.487 76.582 14.3893 76.8945 14.2656C77.207 14.1354 77.4967 13.9824 77.7637 13.8066C78.0371 13.6309 78.2715 13.4388 78.4668 13.2305V5.4668H81.3574V17H78.4668V16.0137C77.7572 16.4368 77.0443 16.7396 76.3281 16.9219C75.612 17.1042 74.9316 17.1953 74.2871 17.1953C73.2324 17.1953 72.3275 17.0684 71.5723 16.8145C70.8236 16.5605 70.2083 16.1927 69.7266 15.7109C69.2513 15.2227 68.903 14.627 68.6816 13.9238C68.4603 13.2142 68.3496 12.4069 68.3496 11.502V5.4668ZM85.0879 15.3105C85.0879 15.0501 85.14 14.806 85.2441 14.5781C85.3548 14.3438 85.5111 14.1419 85.7129 13.9727C85.9147 13.7969 86.1589 13.6602 86.4453 13.5625C86.7318 13.4648 87.054 13.416 87.4121 13.416C87.7702 13.416 88.0924 13.4648 88.3789 13.5625C88.6654 13.6602 88.9062 13.7969 89.1016 13.9727C89.3034 14.1419 89.4564 14.3438 89.5605 14.5781C89.6712 14.806 89.7266 15.0501 89.7266 15.3105C89.7266 15.571 89.6712 15.8184 89.5605 16.0527C89.4564 16.2806 89.3034 16.4792 89.1016 16.6484C88.9062 16.8177 88.6654 16.9512 88.3789 17.0488C88.0924 17.153 87.7702 17.2051 87.4121 17.2051C87.054 17.2051 86.7318 17.153 86.4453 17.0488C86.1589 16.9512 85.9147 16.8177 85.7129 16.6484C85.5111 16.4792 85.3548 16.2806 85.2441 16.0527C85.14 15.8184 85.0879 15.571 85.0879 15.3105Z" fill="white"/>
</svg>
