<?xml version="1.0" encoding="utf-8"?><svg viewBox="0 0 90 18" xmlns="http://www.w3.org/2000/svg" xmlns:xlink="http://www.w3.org/1999/xlink"><style>:root>svg{display:none}:root>svg:target{display:block}</style><svg fill="none" viewBox="0 0 90 18" id="worku" xmlns="http://www.w3.org/2000/svg"><path d="M.195 1.736h3.38l4.14 9.854.957 2.383.752-2.383 1.523-3.594-2.744-6.26h3.184l1.123 2.979 1.045-2.979h3.183l-2.744 6.26 1.553 3.672.937 2.305.723-2.344 4.16-9.893h3.38L18.006 17h-3.066l-1.357-3.027-1.104-2.94-1.103 2.94L10 17H6.934L.195 1.736Zm25.86 9.502a5.5 5.5 0 0 1 .498-2.324 5.715 5.715 0 0 1 1.435-1.894c.625-.54 1.377-.967 2.256-1.28.886-.312 1.878-.469 2.979-.469 1.1 0 2.09.157 2.968.47.886.312 1.638.738 2.256 1.279a5.545 5.545 0 0 1 1.436 1.894 5.41 5.41 0 0 1 .508 2.324 5.543 5.543 0 0 1-1.943 4.219c-.62.54-1.371.967-2.257 1.28-.879.312-1.868.468-2.968.468-1.1 0-2.093-.156-2.979-.469-.879-.312-1.63-.739-2.256-1.279a5.714 5.714 0 0 1-1.435-1.895 5.5 5.5 0 0 1-.498-2.324Zm3.037 0c0 .463.09.902.273 1.319.189.41.46.774.81 1.093.359.313.792.563 1.3.752.514.183 1.097.274 1.748.274.65 0 1.23-.091 1.738-.274a4.01 4.01 0 0 0 1.299-.752 3.196 3.196 0 0 0 1.093-2.412c0-.462-.094-.901-.283-1.318a3.078 3.078 0 0 0-.81-1.094 3.789 3.789 0 0 0-1.3-.752c-.507-.189-1.086-.283-1.737-.283s-1.234.094-1.748.283c-.508.183-.941.433-1.3.752a3.24 3.24 0 0 0-.81 1.094 3.253 3.253 0 0 0-.273 1.318ZM43.31 5.477h2.891v1.66a12.599 12.599 0 0 1 2.022-1.23c.71-.346 1.416-.61 2.119-.792l.85 2.647c-1.114.11-2.094.361-2.94.752a5.234 5.234 0 0 0-2.05 1.63V17H43.31V5.477ZM53.36.799h2.89v9.57l5.39-4.892h4.424l-6.025 5.39L66.445 17H62.11l-4.287-4.15-1.572 1.406V17h-2.89V.799Zm14.99 4.668h2.88v5.625c0 .534.06 1.022.176 1.465.117.436.316.81.596 1.123.286.312.664.556 1.133.732.475.17 1.064.254 1.767.254a4.85 4.85 0 0 0 1.006-.107c.345-.072.674-.17.986-.293.313-.13.603-.284.87-.46.273-.175.508-.367.703-.575V5.466h2.89V17h-2.89v-.986a8.062 8.062 0 0 1-2.139.908 8.28 8.28 0 0 1-2.04.273c-1.056 0-1.96-.127-2.716-.38-.748-.255-1.364-.622-1.845-1.104a4.419 4.419 0 0 1-1.045-1.787c-.222-.71-.332-1.517-.332-2.422V5.467Zm16.738 9.843c0-.26.052-.504.156-.732.11-.234.267-.436.469-.605.202-.176.446-.313.732-.41.287-.098.609-.147.967-.147s.68.049.967.146c.286.098.527.235.723.41.201.17.354.372.459.606a1.716 1.716 0 0 1 0 1.475 1.686 1.686 0 0 1-.46.595c-.195.17-.436.303-.722.4a2.814 2.814 0 0 1-.967.157c-.358 0-.68-.052-.967-.156a2.26 2.26 0 0 1-.732-.4 1.795 1.795 0 0 1-.469-.596 1.808 1.808 0 0 1-.156-.743Z" fill="#fff"/></svg></svg>